<svg width="53" height="54" viewBox="0 0 53 54" fill="none" xmlns="http://www.w3.org/2000/svg">
<g clip-path="url(#clip0_181_29)">
<path d="M26.5005 29.25C26.5005 32.9782 20.5689 36 13.2505 36C5.93207 36 0.000488281 32.9782 0.000488281 29.25C0.000488281 25.5217 5.93207 22.5 13.2505 22.5C20.5689 22.5 26.5005 25.5217 26.5005 29.25ZM26.5005 41.625V46.125C26.5005 50.6138 20.8052 54 13.2505 54C5.69578 54 0.000488281 50.6138 0.000488281 46.125V41.625C0.000488281 46.0597 5.52132 49.5 13.2505 49.5C20.9797 49.5 26.5005 46.0597 26.5005 41.625ZM26.5005 32.625V37.125C26.5005 41.6138 20.8052 45 13.2505 45C5.69578 45 0.000488281 41.6138 0.000488281 37.125V32.625C0.000488281 37.0597 5.52132 40.5 13.2505 40.5C20.9797 40.5 26.5005 37.0597 26.5005 32.625ZM39.7505 13.5H22.0838V18H39.7505V13.5ZM41.9588 0H19.8755C13.7871 0 8.83382 5.04675 8.83382 11.25V18.3127C10.2317 18.108 11.7091 18 13.2505 18C14.7919 18 16.2693 18.108 17.6672 18.3127V13.5C17.6672 11.0182 19.648 9 22.0838 9H39.7505C42.1863 9 44.1672 11.0182 44.1672 13.5V18C44.1672 20.4818 42.1863 22.5 39.7505 22.5H27.6731C29.1196 23.7915 30.1288 25.3125 30.6058 27H33.1233C34.3445 27 35.3316 28.008 35.3316 29.25V31.5C35.3316 32.742 34.3445 33.75 33.1233 33.75H30.9149V38.25H41.9566C43.1778 38.25 44.1649 39.258 44.1649 40.5C44.1649 41.742 43.1778 42.75 41.9566 42.75H30.9149V46.125C30.9149 49.1963 29.5524 51.9053 27.1895 54H41.9566C48.045 54 52.9983 48.9533 52.9983 42.75V11.25C52.9983 5.04675 48.0472 0 41.9588 0ZM44.1672 31.5C44.1672 32.742 43.18 33.75 41.9588 33.75C40.7376 33.75 39.7505 32.742 39.7505 31.5V29.25C39.7505 28.008 40.7376 27 41.9588 27C43.18 27 44.1672 28.008 44.1672 29.25V31.5Z" fill="#FF4811"/>
</g>
<defs>
<clipPath id="clip0_181_29">
<rect width="53" height="54" fill="white" transform="translate(0.000488281)"/>
</clipPath>
</defs>
</svg>
