<svg width="22" height="21" viewBox="0 0 22 21" fill="none" xmlns="http://www.w3.org/2000/svg">
<path d="M15.75 10.5C15.75 10.9839 15.358 11.375 14.875 11.375H12.25V14C12.25 14.4839 11.858 14.875 11.375 14.875C10.892 14.875 10.5 14.4839 10.5 14V11.375H7.875C7.392 11.375 7 10.9839 7 10.5C7 10.0161 7.392 9.625 7.875 9.625H10.5V7C10.5 6.51613 10.892 6.125 11.375 6.125C11.858 6.125 12.25 6.51613 12.25 7V9.625H14.875C15.358 9.625 15.75 10.0161 15.75 10.5ZM21.875 4.375V16.625C21.875 19.0374 19.9124 21 17.5 21H5.25C2.83763 21 0.875 19.0374 0.875 16.625V4.375C0.875 1.96263 2.83763 0 5.25 0H17.5C19.9124 0 21.875 1.96263 21.875 4.375ZM20.125 4.375C20.125 2.92775 18.9473 1.75 17.5 1.75H5.25C3.80275 1.75 2.625 2.92775 2.625 4.375V16.625C2.625 18.0723 3.80275 19.25 5.25 19.25H17.5C18.9473 19.25 20.125 18.0723 20.125 16.625V4.375Z" fill="#FF4811"/>
</svg>
