<svg width="25" height="24" viewBox="0 0 25 24" fill="none" xmlns="http://www.w3.org/2000/svg">
<g clip-path="url(#clip0_54_93)">
<path d="M0.976 4C1.441 1.721 3.461 0 5.875 0H19.875C22.289 0 24.309 1.721 24.774 4H0.976ZM24.875 6V19C24.875 21.757 22.632 24 19.875 24H5.875C3.118 24 0.875 21.757 0.875 19V6H24.875ZM3.875 10C3.875 10.552 4.322 11 4.875 11H9.875C10.428 11 10.875 10.552 10.875 10C10.875 9.448 10.428 9 9.875 9H4.875C4.322 9 3.875 9.448 3.875 10ZM15.875 20C15.875 19.447 15.428 19 14.875 19H4.875C4.322 19 3.875 19.447 3.875 20C3.875 20.553 4.322 21 4.875 21H14.875C15.428 21 15.875 20.553 15.875 20ZM15.875 15C15.875 14.447 15.428 14 14.875 14H7.875C7.322 14 6.875 14.447 6.875 15C6.875 15.553 7.322 16 7.875 16H14.875C15.428 16 15.875 15.553 15.875 15ZM21.875 20C21.875 19.262 21.47 18.624 20.875 18.277V12C20.875 10.346 19.529 9 17.875 9H16.598C16.252 8.405 15.614 8 14.875 8C13.77 8 12.875 8.895 12.875 10C12.875 11.105 13.77 12 14.875 12C15.613 12 16.251 11.595 16.598 11H17.875C18.427 11 18.875 11.449 18.875 12V18.277C18.28 18.623 17.875 19.261 17.875 20C17.875 21.105 18.77 22 19.875 22C20.98 22 21.875 21.105 21.875 20Z" fill="white"/>
</g>
<defs>
<clipPath id="clip0_54_93">
<rect width="24" height="24" fill="white" transform="translate(0.875)"/>
</clipPath>
</defs>
</svg>
