<svg width="25" height="24" viewBox="0 0 25 24" fill="none" xmlns="http://www.w3.org/2000/svg">
<g clip-path="url(#clip0_53_84)">
<path d="M22.375 23.941C22.162 23.941 21.949 23.86 21.786 23.697L21.096 23.007C20.309 22.22 19.875 21.174 19.875 20.06V2.5C19.875 1.121 20.996 0 22.375 0C23.754 0 24.875 1.121 24.875 2.5V20.059C24.875 21.172 24.441 22.219 23.654 23.006L22.964 23.696C22.801 23.859 22.588 23.941 22.375 23.941ZM13.875 2H13.204C12.791 0.836 11.679 0 10.375 0H8.375C7.071 0 5.959 0.836 5.546 2H4.875C2.669 2 0.875 3.794 0.875 6V19C0.875 21.757 3.118 24 5.875 24H12.875C15.632 24 17.875 21.757 17.875 19V6C17.875 3.794 16.081 2 13.875 2ZM10.602 14.207L8.423 16.386C8.014 16.795 7.477 16.999 6.94 16.999C6.403 16.999 5.866 16.795 5.457 16.386L4.169 15.097C3.778 14.706 3.778 14.073 4.169 13.683C4.56 13.292 5.192 13.292 5.583 13.683L6.871 14.972C6.904 15.005 6.976 15.005 7.01 14.972L9.189 12.793C9.58 12.402 10.212 12.402 10.603 12.793C10.994 13.184 10.993 13.816 10.602 14.207ZM10.602 8.207L8.423 10.386C8.014 10.795 7.477 10.999 6.94 10.999C6.403 10.999 5.866 10.795 5.457 10.386L4.169 9.097C3.778 8.706 3.778 8.073 4.169 7.683C4.56 7.292 5.192 7.292 5.583 7.683L6.871 8.972C6.904 9.005 6.976 9.005 7.01 8.972L9.189 6.793C9.58 6.402 10.212 6.402 10.603 6.793C10.994 7.184 10.993 7.816 10.602 8.207Z" fill="white"/>
</g>
<defs>
<clipPath id="clip0_53_84">
<rect width="24" height="24" fill="white" transform="translate(0.875)"/>
</clipPath>
</defs>
</svg>
