<svg width="20" height="19" viewBox="0 0 20 19" fill="none" xmlns="http://www.w3.org/2000/svg">
<path d="M18.2917 4.53506V1.5869C18.2917 1.1499 17.9378 0.795229 17.5 0.795229C17.0622 0.795229 16.7083 1.1499 16.7083 1.5869V3.45998L12.5893 0.680438C11.2442 -0.226813 9.50575 -0.226813 8.16071 0.680438L2.61904 4.42027C1.52733 5.15731 0.875 6.38361 0.875 7.70173V15.0452C0.875 17.2279 2.65071 19.0036 4.83333 19.0036H6.41667C6.85446 19.0036 7.20833 18.6489 7.20833 18.2119V11.0869C7.20833 10.6507 7.563 10.2952 8 10.2952H12.75C13.187 10.2952 13.5417 10.6507 13.5417 11.0869V18.2119C13.5417 18.6489 13.8955 19.0036 14.3333 19.0036H15.9167C18.0993 19.0036 19.875 17.2279 19.875 15.0452V7.70173C19.875 6.4501 19.286 5.28081 18.2917 4.53506Z" fill="white"/>
</svg>
