<svg width="25" height="24" viewBox="0 0 25 24" fill="none" xmlns="http://www.w3.org/2000/svg">
<path d="M9.375 4V2C9.375 0.897 10.272 0 11.375 0H14.375C15.478 0 16.375 0.897 16.375 2V4C16.375 5.103 15.478 6 14.375 6H11.375C10.272 6 9.375 5.103 9.375 4ZM14.375 18H11.375C10.272 18 9.375 18.897 9.375 20V22C9.375 23.103 10.272 24 11.375 24H14.375C15.478 24 16.375 23.103 16.375 22V20C16.375 18.897 15.478 18 14.375 18ZM22.875 18H19.875C18.772 18 17.875 18.897 17.875 20V22C17.875 23.103 18.772 24 19.875 24H22.875C23.978 24 24.875 23.103 24.875 22V20C24.875 18.897 23.978 18 22.875 18ZM5.875 18H2.875C1.772 18 0.875 18.897 0.875 20V22C0.875 23.103 1.772 24 2.875 24H5.875C6.978 24 7.875 23.103 7.875 22V20C7.875 18.897 6.978 18 5.875 18ZM5.375 13.5C5.375 13.225 5.599 13 5.875 13H11.875V16H13.875V13H19.875C20.15 13 20.375 13.225 20.375 13.5V16H22.375V13.5C22.375 12.121 21.254 11 19.875 11H13.875V8H11.875V11H5.875C4.497 11 3.375 12.121 3.375 13.5V16H5.375V13.5Z" fill="red"/>
</svg>
