<svg width="56" height="55" viewBox="0 0 56 55" fill="none" xmlns="http://www.w3.org/2000/svg">
<g clip-path="url(#clip0_179_357)">
<path d="M37.1392 26.8724C37.5012 30.9515 34.2975 34.3753 30.2917 34.3753H21.1754C19.5919 34.3753 18.469 32.849 18.941 31.3388C20.0915 27.6515 23.3777 21.794 28.6577 20.7788C32.6796 20.0042 36.7771 22.7932 37.1392 26.8724ZM37.2171 18.4803C38.9129 19.759 40.1481 21.4801 40.909 23.3867L53.8775 9.44195C56.0385 7.2832 56.0431 3.78154 53.8844 1.6205C51.7279 -0.538254 48.2308 -0.540546 46.0721 1.61591C45.9987 1.68925 33.3006 16.5415 33.3006 16.5415C34.6962 16.9426 36.0323 17.5865 37.2171 18.4803ZM38.7456 35.237C36.5823 37.602 33.5 38.9609 30.294 38.9609H21.1777C18.9823 38.9609 16.8969 37.9067 15.5975 36.1422C14.2981 34.3776 13.9131 32.0722 14.5662 29.9776C16.2369 24.6334 20.5727 17.9945 27.3194 16.4224L37.3752 4.5882H11.9583C5.64021 4.58362 0.5 9.72383 0.5 16.042V34.3753C0.5 40.6934 5.64021 45.8336 11.9583 45.8336H25.7083V50.417H18.8333C17.5683 50.417 16.5417 51.4413 16.5417 52.7086C16.5417 53.9759 17.5683 55.0003 18.8333 55.0003H37.1667C38.434 55.0003 39.4583 53.9759 39.4583 52.7086C39.4583 51.4413 38.434 50.417 37.1667 50.417H30.2917V45.8336H44.0417C50.3598 45.8336 55.5 40.6934 55.5 34.3753V14.4034L41.5415 29.4047C41.1748 31.5588 40.2398 33.5984 38.7456 35.2324V35.237Z" fill="#FF4811"/>
</g>
<defs>
<clipPath id="clip0_179_357">
<rect width="55" height="55" fill="white" transform="translate(0.5)"/>
</clipPath>
</defs>
</svg>
