<svg width="56" height="55" viewBox="0 0 56 55" fill="none" xmlns="http://www.w3.org/2000/svg">
<path d="M44.0417 0H11.9583C5.64021 0 0.5 5.6075 0.5 12.5V32.5C0.5 39.3925 5.64021 45 11.9583 45H25.7083V50H16.5417C15.2767 50 14.25 51.1175 14.25 52.5C14.25 53.8825 15.2767 55 16.5417 55H39.4583C40.7233 55 41.75 53.8825 41.75 52.5C41.75 51.1175 40.7233 50 39.4583 50H30.2917V45H44.0417C50.3598 45 55.5 39.3925 55.5 32.5V12.5C55.5 5.6075 50.3598 0 44.0417 0ZM17.2131 24.2675L23.1325 30.7275C24.0285 31.705 24.0285 33.285 23.1325 34.2625C22.6856 34.75 22.099 34.995 21.5123 34.995C20.9256 34.995 20.339 34.75 19.8921 34.2625L13.9727 27.8025C11.2915 24.8775 11.2915 20.1225 13.9727 17.1975L19.8921 10.7375C20.7881 9.76 22.2365 9.76 23.1325 10.7375C24.0285 11.715 24.0285 13.295 23.1325 14.2725L17.2131 20.7325C16.3194 21.7075 16.3194 23.2925 17.2131 24.2675ZM42.0273 27.8025L36.1079 34.2625C35.661 34.75 35.0744 34.995 34.4877 34.995C33.901 34.995 33.3144 34.75 32.8675 34.2625C31.9715 33.285 31.9715 31.705 32.8675 30.7275L38.7869 24.2675C39.6806 23.2925 39.6806 21.7075 38.7869 20.7325L32.8675 14.2725C31.9715 13.295 31.9715 11.715 32.8675 10.7375C33.7635 9.76 35.2119 9.76 36.1079 10.7375L42.0273 17.1975C44.7085 20.1225 44.7085 24.8775 42.0273 27.8025Z" fill="#FF4811"/>
</svg>
