<svg width="55" height="55" viewBox="0 0 55 55" fill="none" xmlns="http://www.w3.org/2000/svg">
<g clip-path="url(#clip0_181_26)">
<path d="M18.3333 27.5C10.7502 27.5 4.58333 21.3331 4.58333 13.75C4.58333 6.16688 10.7502 0 18.3333 0C25.9165 0 32.0833 6.16688 32.0833 13.75C32.0833 21.3331 25.9165 27.5 18.3333 27.5ZM16.0417 55V32.0833H10.3125C4.62688 32.0833 0 36.7102 0 42.3958V55H16.0417ZM46.75 38.429C46.75 37.2923 45.8242 36.3665 44.6875 36.3665H42.625V40.4915H44.6875C45.8242 40.4915 46.75 39.5656 46.75 38.429ZM48.125 27.5H27.5C23.7027 27.5 20.625 30.5777 20.625 34.375V55H55V34.375C55 31.2835 51.9223 27.5 48.125 27.5ZM36.6667 50.4167H33V43.0719H28.875V50.4167H25.2083V32.0833H28.875V39.4052H33V32.0833H36.6667V50.4167ZM48.0975 42.4165C48.0563 42.444 48.0563 42.444 48.0013 42.4829L50.4167 50.4167H46.42L44.4217 43.5417H42.625V50.4167H38.9583V32.0833H44.6875C47.8523 32.0833 50.4167 34.6477 50.4167 37.8125C50.4167 39.7513 49.4473 41.4608 47.9715 42.4967C48.0265 42.4646 48.054 42.444 48.0975 42.4165Z" fill="#FF4811"/>
</g>
<defs>
<clipPath id="clip0_181_26">
<rect width="55" height="55" fill="white"/>
</clipPath>
</defs>
</svg>
