<svg width="25" height="25" viewBox="0 0 25 25" fill="none" xmlns="http://www.w3.org/2000/svg">
<g clip-path="url(#clip0_221_103)">
<path d="M23.7059 10.1598L19.8269 6.28078C19.4297 5.8971 18.7966 5.90812 18.413 6.30538C18.0387 6.6929 18.0387 7.30729 18.413 7.69481L22.292 11.5738C22.4072 11.6913 22.5079 11.8223 22.592 11.9638C22.577 11.9638 22.565 11.9558 22.5499 11.9558L6.86595 11.9878C6.31367 11.9878 5.86597 12.4355 5.86597 12.9878C5.86597 13.5401 6.31367 13.9878 6.86595 13.9878L22.544 13.9558C22.5719 13.9558 22.595 13.9417 22.622 13.9398C22.5333 14.1089 22.4208 14.2645 22.288 14.4018L18.409 18.2808C18.0117 18.6644 18.0007 19.2975 18.3844 19.6948C18.768 20.092 19.4011 20.103 19.7983 19.7194C19.8067 19.7113 19.8149 19.7031 19.823 19.6948L23.702 15.8158C25.2635 14.2537 25.2635 11.7217 23.702 10.1598H23.7059Z" fill="white"/>
<path d="M7.87694 22.9878H5.87692C4.22008 22.9878 2.87692 21.6446 2.87692 19.9878V5.98781C2.87692 4.33096 4.22008 2.98781 5.87692 2.98781H7.87694C8.42922 2.98781 8.87692 2.54011 8.87692 1.98782C8.87692 1.43554 8.42927 0.987793 7.87694 0.987793H5.87692C3.11692 0.991121 0.880281 3.22776 0.876953 5.98781V19.9878C0.880281 22.7478 3.11692 24.9845 5.87697 24.9878H7.87698C8.42927 24.9878 8.87697 24.5401 8.87697 23.9878C8.87697 23.4355 8.42927 22.9878 7.87694 22.9878Z" fill="white"/>
</g>
<defs>
<clipPath id="clip0_221_103">
<rect width="24" height="24" fill="white" transform="translate(0.875 0.987793)"/>
</clipPath>
</defs>
</svg>
