<svg width="56" height="55" viewBox="0 0 56 55" fill="none" xmlns="http://www.w3.org/2000/svg">
<g clip-path="url(#clip0_179_352)">
<path d="M53.2083 36.6667C52.8536 36.6666 52.5037 36.5843 52.1863 36.426L47.6029 34.1344C47.0589 33.8627 46.6452 33.3861 46.4526 32.8093C46.2601 32.2325 46.3046 31.6029 46.5763 31.059C46.8479 30.515 47.3246 30.1012 47.9013 29.9087C48.4781 29.7161 49.1077 29.7606 49.6517 30.0323L54.235 32.324C54.6976 32.5545 55.0687 32.9347 55.288 33.4027C55.5073 33.8708 55.5619 34.3992 55.443 34.9022C55.324 35.4053 55.0386 35.8533 54.6329 36.1736C54.2272 36.4939 53.7252 36.6677 53.2083 36.6667ZM49.6494 15.8125L54.2327 13.5208C54.7767 13.2492 55.1904 12.7725 55.383 12.1958C55.5755 11.619 55.5311 10.9894 55.2594 10.4454C54.9877 9.90145 54.5111 9.48768 53.9343 9.29514C53.3575 9.10261 52.7279 9.14707 52.184 9.41875L47.6006 11.7104C47.0567 11.9821 46.6429 12.4587 46.4504 13.0355C46.2578 13.6122 46.3023 14.2419 46.574 14.7858C46.8456 15.3298 47.3223 15.7436 47.899 15.9361C48.4758 16.1286 49.1054 16.0842 49.6494 15.8125ZM55.5 22.9167C55.5 22.3089 55.2586 21.726 54.8288 21.2962C54.399 20.8664 53.8161 20.625 53.2083 20.625H48.625C48.0172 20.625 47.4343 20.8664 47.0045 21.2962C46.5748 21.726 46.3333 22.3089 46.3333 22.9167C46.3333 23.5245 46.5748 24.1073 47.0045 24.5371C47.4343 24.9669 48.0172 25.2083 48.625 25.2083H53.2083C53.8161 25.2083 54.399 24.9669 54.8288 24.5371C55.2586 24.1073 55.5 23.5245 55.5 22.9167ZM41.75 43.5417V2.29167C41.75 1.68388 41.5086 1.10098 41.0788 0.671214C40.649 0.241443 40.0661 0 39.4583 0C38.8505 0 38.2677 0.241443 37.8379 0.671214C37.4081 1.10098 37.1667 1.68388 37.1667 2.29167C37.1667 9.04979 31.2473 11.4583 25.7083 11.4583H9.66667C7.23552 11.4583 4.90394 12.4241 3.18485 14.1432C1.46577 15.8623 0.5 18.1938 0.5 20.625L0.5 25.2083C0.5 27.6395 1.46577 29.9711 3.18485 31.6901C4.90394 33.4092 7.23552 34.375 9.66667 34.375H25.7083C31.2473 34.375 37.1667 36.7835 37.1667 43.5417C37.1667 44.1495 37.4081 44.7324 37.8379 45.1621C38.2677 45.5919 38.8505 45.8333 39.4583 45.8333C40.0661 45.8333 40.649 45.5919 41.0788 45.1621C41.5086 44.7324 41.75 44.1495 41.75 43.5417ZM19.2596 38.9583H9.66667C8.5997 38.9541 7.53685 38.8256 6.49958 38.5756L12.2288 51.3677C12.7099 52.4489 13.4942 53.3674 14.4866 54.0121C15.479 54.6567 16.637 54.9999 17.8204 55C18.762 54.9987 19.6882 54.7619 20.5148 54.311C21.3413 53.8601 22.0419 53.2095 22.5527 52.4186C23.0634 51.6276 23.3681 50.7214 23.439 49.7825C23.5098 48.8437 23.3446 47.902 22.9583 47.0433L19.2596 38.9583Z" fill="#FF4811"/>
</g>
<defs>
<clipPath id="clip0_179_352">
<rect width="55" height="55" fill="white" transform="translate(0.5)"/>
</clipPath>
</defs>
</svg>
