<svg width="37" height="38" viewBox="0 0 37 38" fill="none" xmlns="http://www.w3.org/2000/svg">
<g clip-path="url(#clip0_40_14)">
<path d="M30.8749 12.8333C34.1839 12.8333 36.8749 10.0676 36.8749 6.66667C36.8749 3.26575 34.1839 0.5 30.8749 0.5C27.5659 0.5 24.8749 3.26575 24.8749 6.66667C24.8749 10.0676 27.5659 12.8333 30.8749 12.8333ZM30.8749 3.58333C32.5294 3.58333 33.8749 4.96621 33.8749 6.66667C33.8749 8.36713 32.5294 9.75 30.8749 9.75C29.2204 9.75 27.8749 8.36713 27.8749 6.66667C27.8749 4.96621 29.2204 3.58333 30.8749 3.58333ZM33.6769 16.3807C33.4864 15.5513 32.6644 15.041 31.8739 15.2322C31.0669 15.428 30.5674 16.2574 30.7564 17.0853L32.3419 24.0058C32.6179 25.0202 32.4184 26.084 31.7944 26.9242C31.1659 27.7675 30.2104 28.25 29.1724 28.25H8.57744C7.57244 28.25 6.63644 27.7921 6.00944 26.9935C5.38394 26.1965 5.14994 25.1698 5.35094 24.2401L8.49194 12.2506C9.60194 7.14767 13.9549 3.58487 19.0759 3.58487C19.7209 3.58487 20.3644 3.64346 20.9884 3.76062C21.8149 3.91171 22.5844 3.35363 22.7329 2.51804C22.8814 1.67937 22.3384 0.877708 21.5239 0.725083C20.7229 0.575542 19.8994 0.5 19.0744 0.5C12.5389 0.5 6.98294 5.05562 5.57894 11.5137L2.43794 23.5017C2.02094 25.4195 2.47094 27.3975 3.67394 28.9299C4.87244 30.4577 6.66044 31.3349 8.57744 31.3349H11.5264C12.2239 34.8483 15.2524 37.5015 18.8749 37.5015C22.4974 37.5015 25.5259 34.8483 26.2234 31.3349H29.1709C31.1509 31.3349 32.9764 30.4099 34.1764 28.7973C35.3779 27.1816 35.7619 25.1327 35.2459 23.2396L33.6769 16.3822V16.3807ZM18.8749 34.4167C16.9219 34.4167 15.2719 33.1232 14.6509 31.3333H23.0974C22.4764 33.1232 20.8264 34.4167 18.8734 34.4167H18.8749Z" fill="#FF4811"/>
</g>
<defs>
<clipPath id="clip0_40_14">
<rect width="36" height="37" fill="white" transform="translate(0.875 0.5)"/>
</clipPath>
</defs>
</svg>
