<svg width="31" height="30" viewBox="0 0 31 30" fill="none" xmlns="http://www.w3.org/2000/svg">
<path d="M16.6722 9.7563L25.1809 0.87751C26.3022 -0.292503 28.1222 -0.292503 29.2434 0.87751C30.3647 2.04752 30.3647 3.94667 29.2434 5.11669L20.7347 13.9955C19.7184 15.0559 18.3409 15.652 16.9034 15.652H15.0847V13.7542C15.0847 12.2542 15.6559 10.8167 16.6722 9.7563ZM26.0184 12.172L22.5022 15.8412C21.0172 17.3907 19.0047 18.2607 16.9047 18.2607H13.8359C13.1459 18.2607 12.5859 17.6764 12.5859 16.9564V13.7542C12.5859 13.0642 12.6759 12.3911 12.8322 11.7389H6.33594C2.88469 11.7389 0.0859375 14.6594 0.0859375 18.2607V23.4782C0.0859375 27.0795 2.88469 30 6.33594 30H23.8359C27.2872 30 30.0859 27.0795 30.0859 23.4782V18.2607C30.0859 15.4694 28.3872 13.1007 26.0184 12.172ZM6.96094 23.4221C5.92594 23.4221 5.08594 22.5456 5.08594 21.4656C5.08594 20.3855 5.92594 19.509 6.96094 19.509C7.99594 19.509 8.83594 20.3855 8.83594 21.4656C8.83594 22.5456 7.99594 23.4221 6.96094 23.4221ZM13.2109 23.4221C12.1759 23.4221 11.3359 22.5456 11.3359 21.4656C11.3359 20.3855 12.1759 19.509 13.2109 19.509C14.2459 19.509 15.0859 20.3855 15.0859 21.4656C15.0859 22.5456 14.2459 23.4221 13.2109 23.4221Z" fill="#FF4811"/>
</svg>
