<svg width="55" height="55" viewBox="0 0 55 55" fill="none" xmlns="http://www.w3.org/2000/svg">
<g clip-path="url(#clip0_179_355)">
<path d="M29.7916 17.1875C29.7916 19.085 28.2516 20.625 26.3541 20.625C24.4566 20.625 22.9166 19.085 22.9166 17.1875C22.9166 15.29 24.4566 13.75 26.3541 13.75C28.2516 13.75 29.7916 15.29 29.7916 17.1875ZM12.6041 1.46452e-05C10.7066 1.46452e-05 9.16663 1.54001 9.16663 3.43751C9.16663 5.33501 10.7066 6.87501 12.6041 6.87501C14.5016 6.87501 16.0416 5.33501 16.0416 3.43751C16.0416 1.54001 14.5016 1.46452e-05 12.6041 1.46452e-05ZM16.2502 19.5731L26.5627 3.53147C27.2456 2.46814 26.9385 1.0496 25.8729 0.36439C24.8118 -0.320819 23.391 -0.0114437 22.7058 1.05418L12.3933 17.0958C11.7104 18.1592 12.0175 19.5777 13.0831 20.2629C13.4658 20.5081 13.8943 20.6273 14.3206 20.6273C15.0745 20.6273 15.8125 20.2538 16.2502 19.5731ZM53.0543 19.894C51.8741 18.8192 50.3364 18.2623 48.7506 18.3402C47.1533 18.4136 45.682 19.1056 44.6393 20.2538L36.5245 28.8177C36.5979 29.299 36.6735 29.7802 36.6735 30.2798C36.6735 35.0533 33.11 39.1623 28.3845 39.8361L18.6404 41.2019C17.3868 41.3806 16.2273 40.5098 16.0485 39.2586C15.8698 38.005 16.7406 36.8454 17.9918 36.6667L27.5298 35.3306C29.6748 35.0236 31.5356 33.4836 31.9756 31.3615C32.6539 28.0958 30.1652 25.2083 27.0164 25.2083H9.17121C4.11121 25.2083 0.00683594 29.3127 0.00683594 34.375V45.8333C0.00683594 50.8956 4.11121 55 9.1735 55H18.9406C25.3687 55 31.4989 52.3004 35.8393 47.5613L53.4898 28.2906C55.6623 25.8569 55.4652 22.0871 53.0566 19.8917L53.0543 19.894Z" fill="#FF4811"/>
</g>
<defs>
<clipPath id="clip0_179_355">
<rect width="55" height="55" fill="white"/>
</clipPath>
</defs>
</svg>
