<svg width="25" height="24" viewBox="0 0 25 24" fill="none" xmlns="http://www.w3.org/2000/svg">
<path d="M22.173 13.885L21.722 13.625C21.824 13.081 21.875 12.537 21.875 12C21.875 11.463 21.824 10.918 21.722 10.375L22.173 10.115C23.609 9.289 24.104 7.455 23.278 6.019C22.452 4.582 20.619 4.087 19.182 4.913L18.732 5.172C17.891 4.451 16.922 3.892 15.875 3.523V3.001C15.875 1.344 14.532 0.000999451 12.875 0.000999451C11.218 0.000999451 9.87498 1.344 9.87498 3.001V3.523C8.82798 3.893 7.85898 4.452 7.01798 5.172L6.56798 4.913C5.13198 4.087 3.29798 4.582 2.47198 6.018C1.64598 7.455 2.14098 9.289 3.57698 10.115L4.02798 10.374C3.92598 10.918 3.87498 11.462 3.87498 11.999C3.87498 12.536 3.92598 13.081 4.02798 13.624L3.57698 13.883C2.14098 14.709 1.64598 16.543 2.47198 17.979C3.29798 19.416 5.13198 19.911 6.56798 19.085L7.01798 18.826C7.85898 19.547 8.82798 20.106 9.87498 20.475V20.997C9.87498 22.654 11.218 23.997 12.875 23.997C14.532 23.997 15.875 22.654 15.875 20.997V20.475C16.922 20.105 17.891 19.546 18.732 18.826L19.182 19.085C20.618 19.911 22.452 19.416 23.278 17.979C24.104 16.542 23.609 14.709 22.173 13.883V13.885ZM12.875 7C14.256 7 15.375 8.119 15.375 9.5C15.375 10.881 14.256 12 12.875 12C11.494 12 10.375 10.881 10.375 9.5C10.375 8.119 11.494 7 12.875 7ZM12.875 17C11.434 17 10.155 16.371 9.24798 15.391C9.86498 13.989 11.243 13 12.875 13C14.507 13 15.885 13.989 16.503 15.392C15.596 16.372 14.316 17 12.875 17Z" fill="white"/>
</svg>
