<svg width="25" height="24" viewBox="0 0 25 24" fill="none" xmlns="http://www.w3.org/2000/svg">
<g clip-path="url(#clip0_108_223)">
<path d="M1.182 6.221C0.785 5.838 0.772 5.205 1.155 4.807C1.537 4.408 2.17 4.396 2.569 4.779L3.876 6.035V4C3.875 1.794 5.669 0 7.875 0H8.875C9.428 0 9.875 0.448 9.875 1C9.875 1.552 9.428 2 8.875 2H7.875C6.772 2 5.875 2.897 5.875 4V6.029L7.182 4.779C7.581 4.396 8.214 4.408 8.596 4.807C8.979 5.205 8.966 5.838 8.569 6.221L6.268 8.433C5.888 8.811 5.385 9.002 4.88 9.002C4.37 9.002 3.859 8.809 3.47 8.42L1.182 6.221ZM0.875 21C0.875 22.654 2.221 24 3.875 24H10.875C12.529 24 13.875 22.654 13.875 21V17H0.875V21ZM21.875 0H14.875C13.221 0 11.875 1.346 11.875 3H24.875C24.875 1.346 23.529 0 21.875 0ZM11.875 9C11.875 10.654 13.221 12 14.875 12H21.875C23.529 12 24.875 10.654 24.875 9V5H11.875V9ZM10.903 12.003C10.893 12.003 10.885 12 10.875 12H3.875C2.221 12 0.875 13.346 0.875 15H13.875C13.875 14.583 13.789 14.187 13.636 13.826C12.528 13.541 11.575 12.889 10.903 12.003ZM22.28 15.58C21.506 14.808 20.245 14.805 19.482 15.567L17.181 17.779C16.784 18.162 16.771 18.795 17.154 19.193C17.537 19.59 18.169 19.604 18.568 19.22L19.875 17.97V19.999C19.875 21.102 18.978 21.999 17.875 21.999H15.875C15.322 21.999 14.875 22.446 14.875 22.999C14.875 23.552 15.322 23.999 15.875 23.999H17.875C20.081 23.999 21.875 22.205 21.875 19.999V17.964L23.182 19.22C23.376 19.407 23.626 19.499 23.875 19.499C24.138 19.499 24.399 19.396 24.596 19.192C24.979 18.794 24.966 18.161 24.569 17.778L22.281 15.579L22.28 15.58Z" fill="white"/>
</g>
<defs>
<clipPath id="clip0_108_223">
<rect width="24" height="24" fill="white" transform="translate(0.875)"/>
</clipPath>
</defs>
</svg>
