<svg width="25" height="24" viewBox="0 0 25 24" fill="none" xmlns="http://www.w3.org/2000/svg">
<g clip-path="url(#clip0_51_44)">
<path d="M12.875 3C12.875 1.343 14.218 0 15.875 0C17.532 0 18.875 1.343 18.875 3C18.875 4.657 17.532 6 15.875 6C14.218 6 12.875 4.657 12.875 3ZM24.875 18C24.875 21.314 22.189 24 18.875 24C15.561 24 12.875 21.314 12.875 18C12.875 14.686 15.561 12 18.875 12C22.189 12 24.875 14.686 24.875 18ZM23.234 16.744L21.836 15.314L18.222 19.017L16.006 16.716L14.619 18.157L16.801 20.425C17.567 21.19 18.88 21.188 19.624 20.444L23.234 16.744ZM5.87499 11C7.53199 11 8.87499 9.657 8.87499 8C8.87499 6.343 7.53199 5 5.87499 5C4.21799 5 2.87499 6.343 2.87499 8C2.87499 9.657 4.21799 11 5.87499 11ZM7.37499 12H4.34399C2.41399 12 0.843994 13.57 0.843994 15.5V19H3.84399V15.5C3.84399 15.224 4.06799 15 4.34399 15H7.37499C7.65099 15 7.87499 15.224 7.87499 15.5V19H10.875V15.5C10.875 13.57 9.30499 12 7.37499 12ZM13.033 12.547C13.296 12.266 13.575 12.001 13.875 11.761V10.501C13.875 10.225 14.099 10.001 14.375 10.001H18.875C19.558 10.001 20.217 10.096 20.85 10.257C20.722 8.443 19.221 7.001 17.375 7.001H14.375C12.445 7.001 10.875 8.571 10.875 10.501C11.759 10.948 12.502 11.719 13.033 12.548V12.547Z" fill="white"/>
</g>
<defs>
<clipPath id="clip0_51_44">
<rect width="24" height="24" fill="white" transform="translate(0.875)"/>
</clipPath>
</defs>
</svg>
